<svg width="156" height="50" viewBox="0 0 156 50" fill="none" xmlns="http://www.w3.org/2000/svg">
<path fill-rule="evenodd" clip-rule="evenodd" d="M15.3679 0.0217566C13.9253 0.269736 12.7284 1.40181 12.4324 2.79798C12.2978 3.43295 12.3024 5.79051 12.4393 6.37137C12.7184 7.55547 13.6937 8.61228 14.8119 8.94247L15.0983 9.02704V11.1659V13.3049L14.3098 13.7328C12.5923 14.6648 11.1277 15.7469 9.81151 17.056C9.06326 17.8004 8.38475 18.56 8.43442 18.5978C8.49378 18.643 10.627 19.3831 10.698 19.3831C10.7402 19.3831 11.0425 19.1163 11.3698 18.7902C12.7256 17.4395 14.0912 16.4673 15.932 15.5421C16.6782 15.1671 17.1207 14.9037 17.2137 14.7791C17.3514 14.5948 17.3563 14.5114 17.3749 12.0765L17.3941 9.56397L16.8358 9.35648L16.2776 9.14894L22.7949 9.14469L29.3123 9.14045L29.3313 11.8647C29.3498 14.5152 29.3542 14.5941 29.4924 14.7791C29.5855 14.9039 30.0273 15.1664 30.7758 15.5421C34.2911 17.3061 36.8175 19.8301 38.5479 23.3068C39.6172 25.4552 40.1922 27.7223 40.2784 30.1311C40.3464 32.0256 40.0871 34.0297 39.5559 35.7176L39.3459 36.385L38.1126 36.3405C34.1617 36.1977 30.9922 35.5445 28.6087 34.3817C27.657 33.9174 26.4506 33.1139 25.5027 32.313C25.0912 31.9654 24.4544 31.4274 24.0876 31.1174C22.1923 29.5163 20.833 28.8458 18.6546 28.4373C17.8921 28.2943 15.7109 28.2398 14.8234 28.3416C12.9649 28.5548 11.2331 29.1588 9.85949 30.0727C8.81771 30.7659 7.55611 32.119 6.84728 33.3035L6.64883 33.6351L6.55261 33.096C6.40314 32.2583 6.40618 29.3303 6.55759 28.3763C6.87909 26.3503 7.58098 24.2375 8.43071 22.7379C8.577 22.4798 8.69648 22.2486 8.69628 22.224C8.69601 22.1996 8.23361 22.016 7.66865 21.816C7.10369 21.616 6.6051 21.439 6.56069 21.4226C6.46049 21.3857 5.86123 22.5683 5.44155 23.6313C4.90678 24.9857 4.48427 26.6063 4.23899 28.2443C4.09701 29.1923 4.11601 32.5517 4.26871 33.5004C4.8336 37.0097 6.06548 39.9005 8.15955 42.6311C8.80268 43.4698 10.7081 45.3624 11.5606 46.0095C14.4104 48.1725 17.4416 49.4162 21.0057 49.8849C22.0558 50.023 24.5172 50.0406 25.5094 49.9172C29.1471 49.4646 32.4128 48.1273 35.2466 45.9299C35.9768 45.3637 37.8644 43.5418 37.7939 43.4713C37.7433 43.4207 35.5868 42.6346 35.4926 42.6325C35.4611 42.6317 35.1579 42.8924 34.8187 43.2117C32.4963 45.3986 29.4572 46.8881 26.0822 47.4936C25.1356 47.6635 22.6095 47.7392 21.6684 47.6259C19.4061 47.3535 17.8127 46.8932 15.9406 45.9713C14.0079 45.0195 12.6178 44.0037 11.116 42.4457C9.88071 41.1643 8.96292 39.8566 8.12195 38.1797L7.74385 37.4258L7.82532 37.0803C8.16541 35.6378 8.96366 34.1229 9.92734 33.091L10.4059 32.5786L10.5361 32.8324C10.7264 33.2033 11.2664 33.6988 11.708 33.9078C13.1251 34.5781 14.7416 34.0404 15.4169 32.674C15.6675 32.1669 15.6711 32.1483 15.6711 31.3644V30.5691H16.2873C17.847 30.5691 19.2372 30.8462 20.3207 31.373C21.1599 31.7809 21.7232 32.1835 23.3867 33.5638C25.557 35.3644 26.1684 35.7855 27.65 36.4994C30.3827 37.8164 33.1482 38.3942 38.055 38.6731L38.3366 38.689L38.0045 39.2508C37.8219 39.5597 37.6725 39.8345 37.6725 39.8614C37.6725 39.8882 38.1645 40.0843 38.7658 40.2971C40.0242 40.7426 39.8487 40.7874 40.3348 39.8966C41.2986 38.1309 42.0746 35.7698 42.426 33.534C42.5766 32.5758 42.6341 29.8902 42.5265 28.8397C41.8656 22.387 38.0866 16.7571 32.3747 13.7155L31.6078 13.3072V11.1687V9.03027L31.9736 8.91498C33.0411 8.57845 33.9612 7.54853 34.268 6.34664C34.3922 5.86059 34.4122 3.41813 34.2967 2.86004C34.0507 1.67163 33.1571 0.653295 31.9457 0.180921L31.5067 0.00969456L23.5215 0.00120397C19.1297 -0.00344563 15.4605 0.0057862 15.3679 0.0217566ZM31.1198 2.36961C31.5205 2.48861 31.8764 2.85148 32.0013 3.26833C32.0972 3.58841 32.1052 5.50755 32.012 5.84293C31.9753 5.97507 31.8372 6.20944 31.7051 6.36376C31.2673 6.87521 31.7105 6.84954 23.3576 6.84772C19.2216 6.84684 15.8253 6.81935 15.6799 6.78566C15.366 6.71281 14.9792 6.41355 14.7951 6.10095C14.6774 5.90122 14.6575 5.72629 14.6381 4.72029C14.6124 3.39198 14.6638 3.11671 15.009 2.73463C15.4439 2.25337 15.0183 2.27702 23.3239 2.27183C29.8056 2.26772 30.8196 2.28046 31.1198 2.36961ZM46.9645 9.24132C46.4607 9.51518 46.4292 10.3779 46.912 10.6795C47.1474 10.8264 64.0366 16.8224 64.2145 16.8221C64.6712 16.8215 65.0866 16.2971 64.9992 15.8314C64.899 15.2975 65.2922 15.4587 56.0843 12.1749C51.316 10.4744 47.4798 9.14166 47.3578 9.14314C47.2381 9.14462 47.0611 9.18883 46.9645 9.24132ZM51.0283 9.22131C50.87 9.37967 50.9539 9.46599 51.436 9.64072C51.7047 9.73809 53.0162 10.2076 54.3504 10.684L56.7763 11.5504L56.7949 10.5047C56.8101 9.6513 56.7943 9.4298 56.7091 9.29975L56.6047 9.14045H53.857C51.8097 9.14045 51.0886 9.16107 51.0283 9.22131ZM91.962 9.26369C91.8635 9.37259 91.8505 9.62273 91.8505 11.42C91.8505 13.3633 91.8565 13.4591 91.9853 13.5879C92.1162 13.7188 92.2099 13.7227 95.2535 13.7227H98.3869V27.1894C98.3869 40.1501 98.3916 40.6602 98.5102 40.7676C98.6229 40.8696 99.1565 40.8791 104.8 40.8791C110.689 40.8791 110.972 40.8736 111.079 40.7558C111.177 40.6468 111.19 40.3947 111.19 38.5696C111.19 36.5142 111.19 36.5063 111.04 36.4018C110.91 36.3103 110.47 36.2969 107.604 36.2969H104.318L104.3 22.8143C104.283 9.55622 104.281 9.33014 104.152 9.23607C104.042 9.1552 103.101 9.14045 98.0476 9.14045C92.3456 9.14045 92.0685 9.14604 91.962 9.26369ZM9.45982 9.71046C8.90355 9.95244 8.82802 10.7338 9.32916 11.0621C9.55902 11.2127 11.3105 11.8359 11.5039 11.8359C11.7223 11.8359 12.0327 11.6703 12.1629 11.4843C12.2208 11.4018 12.2681 11.2049 12.2681 11.047C12.2681 10.5601 12.0647 10.4051 10.8668 9.97886C10.3 9.77717 9.79965 9.61336 9.75497 9.61477C9.7103 9.61626 9.57748 9.65932 9.45982 9.71046ZM50.8801 26.8406C50.8801 39.1663 50.8909 40.595 50.985 40.7293L51.0898 40.8791H53.845H56.6002L56.7051 40.7293C56.7985 40.5959 56.81 39.7622 56.81 33.1181V25.6567L57.2525 25.341C58.7035 24.3056 60.1679 23.7729 61.3585 23.8474C62.5268 23.9205 63.1438 24.5049 63.3854 25.7673C63.4615 26.1654 63.4812 27.0891 63.4812 30.2646C63.4812 34.008 63.4887 34.2638 63.5991 34.3074C63.8682 34.4134 69.3506 36.3642 69.3796 36.3642C69.4457 36.3642 69.4093 25.5982 69.3408 24.875C69.0169 21.4587 67.5968 19.711 64.6267 19.0734C63.8277 18.9019 61.8893 18.9021 60.9879 19.0738C59.4694 19.363 57.4091 20.2339 56.3383 21.0391C55.8184 21.43 55.8231 21.417 56.4511 20.7308L56.6669 20.4949L56.7438 18.4397C56.7861 17.3093 56.8107 16.1144 56.7985 15.7843L56.7763 15.1843L53.9798 14.1827C52.4417 13.6318 51.115 13.1632 51.0317 13.1413L50.8801 13.1016V26.8406ZM66.0932 16.1192C65.7174 16.3231 65.5943 16.876 65.8363 17.2729C66.0007 17.5425 66.018 17.5514 67.2662 18.0072C68.377 18.4128 68.7331 18.4664 69.0292 18.2724C69.5159 17.9535 69.5334 17.1826 69.0608 16.8769C68.7747 16.6918 66.7768 16.0137 66.5257 16.0165C66.3893 16.018 66.1947 16.0642 66.0932 16.1192ZM0.362025 16.9538C0.0905286 17.1194 0.00393802 17.2818 0.00393802 17.6255C0.00393802 18.2065 -0.446669 18.0157 8.29237 21.1366C12.6472 22.6919 16.2739 23.9646 16.3518 23.9648C16.5976 23.9656 16.9445 23.6777 17.0441 23.3903C17.1245 23.1584 17.123 23.0901 17.0329 22.8755C16.9757 22.7394 16.8582 22.5818 16.7718 22.5253C16.5355 22.3709 0.94363 16.8223 0.746864 16.8227C0.653266 16.8228 0.480085 16.8818 0.362025 16.9538ZM29.9513 17.3594C29.8742 17.3906 29.7302 17.5123 29.6312 17.6298C29.4266 17.8731 29.3853 18.3152 29.5459 18.5444C29.5978 18.6186 29.9116 18.8399 30.2434 19.0362C31.962 20.0535 33.6049 21.6255 34.726 23.3251C35.2067 24.0538 35.7869 25.1914 36.1009 26.0205C36.4087 26.8336 36.4401 26.8897 36.6606 27.0199C37.0547 27.2528 37.5785 27.096 37.7725 26.6872C37.9123 26.3927 37.9073 26.3536 37.6361 25.6028C36.5474 22.5885 34.4569 19.9277 31.7449 18.1044C30.6593 17.3744 30.2916 17.2217 29.9513 17.3594ZM136.811 19.3145C133.707 19.3525 133.835 19.3343 133.833 19.7372C133.832 19.8714 134.747 21.2839 137.134 24.8352C138.95 27.5369 140.436 29.7752 140.436 29.8092C140.436 29.8432 139.528 31.2253 138.418 32.8805C137.309 34.5358 136.424 35.9043 136.453 35.9217C136.563 35.99 141.254 37.6444 141.331 37.6421C141.376 37.6409 141.761 37.0606 142.188 36.3528C142.614 35.645 143.211 34.6572 143.515 34.1576L144.067 33.2494L144.497 33.914C144.733 34.2795 145.604 35.6247 146.43 36.9033C147.257 38.182 148.13 39.5314 148.37 39.902C148.609 40.2726 148.868 40.6441 148.945 40.7275L149.084 40.8791H152.263C155.257 40.8791 155.448 40.8719 155.553 40.7558C155.614 40.688 155.665 40.558 155.665 40.4668C155.665 40.3581 154.446 38.5287 152.125 35.1529C150.177 32.3215 148.597 29.9724 148.612 29.9326C148.627 29.8929 150.16 27.6267 152.018 24.8966C154.628 21.0603 155.395 19.8869 155.395 19.7302C155.395 19.3051 155.473 19.3157 152.33 19.3157H149.477L149.306 19.5197C149.123 19.7364 145.505 25.5071 145.178 26.1038C145.071 26.2978 144.965 26.4571 144.941 26.4576C144.903 26.4584 144.321 25.5821 141.164 20.7645C140.703 20.0603 140.282 19.4502 140.229 19.4087C140.071 19.2858 139.794 19.2781 136.811 19.3145ZM81.6753 19.4151C77.2444 20.0592 74.9458 22.573 74.2179 27.5704C74.0689 28.5935 74.0474 31.9101 74.1826 32.995C74.4458 35.1048 75.0048 36.769 75.8483 37.9531C76.2414 38.5051 77.1046 39.3018 77.6728 39.6372C78.6063 40.1882 79.7487 40.5545 81.1699 40.7584C82.1449 40.8983 86.1824 40.8738 87.3694 40.7207C88.7014 40.5491 89.7362 40.3646 90.6591 40.1344C91.0971 40.0251 91.4676 39.9357 91.4822 39.9357C91.4969 39.9357 91.5403 39.8768 91.5789 39.8048C91.6727 39.6295 91.2713 35.9931 91.1341 35.7746C91.0126 35.5814 90.8817 35.583 89.9444 35.7893C86.2285 36.6071 82.8292 36.6271 81.3825 35.8397C80.995 35.6288 80.5143 35.1145 80.2889 34.6698C80.0134 34.1261 79.7211 32.7879 79.7211 32.0702V31.9168H85.919H92.117L92.2151 31.7652C92.4243 31.4421 92.5246 28.7229 92.3872 27.0987C92.0919 23.6067 91.1137 21.5605 89.192 20.4149C88.5517 20.0333 87.4777 19.6519 86.5608 19.4806C85.7253 19.3246 82.5874 19.2825 81.6753 19.4151ZM110.69 19.4215C110.631 19.4798 110.584 19.6087 110.584 19.7079C110.585 19.9847 117.779 40.562 117.91 40.6601C117.988 40.7188 118.35 40.7459 119.104 40.7496L120.186 40.755L119.606 40.9544L119.025 41.1539L118.837 41.6061C118.477 42.4726 117.796 43.7454 117.51 44.0892C117.007 44.692 116.464 45.0471 115.837 45.1823C115.019 45.3587 113.145 45.325 112.205 45.117C111.845 45.0372 111.555 45.1331 111.505 45.3491C111.486 45.4294 111.358 46.3379 111.22 47.3682C111.028 48.8032 110.986 49.2786 111.042 49.4C111.101 49.5301 111.22 49.583 111.708 49.6953C112.035 49.7706 112.545 49.8703 112.841 49.9169C113.535 50.0261 116.163 50.0263 116.918 49.9174C119.842 49.4956 121.604 48.0848 123.117 44.9559C123.573 44.0133 123.997 42.9535 124.734 40.9162C124.949 40.3213 125.964 37.5789 126.989 34.8219C128.014 32.0648 128.839 29.7753 128.824 29.7338C128.791 29.6499 123.743 27.8323 123.689 27.8856C123.551 28.0241 122.275 32.0111 121.834 33.6833C121.709 34.1545 121.597 34.5297 121.585 34.5171C121.572 34.5044 121.441 34.0279 121.293 33.4581C121.145 32.8884 120.884 31.9522 120.713 31.3777C120.319 30.0491 116.736 19.5218 116.638 19.404C116.579 19.3337 115.975 19.3157 113.68 19.3157C111.148 19.3157 110.783 19.3286 110.69 19.4215ZM126.593 19.4673C126.463 19.6666 124.855 24.3613 124.886 24.4525C124.906 24.5123 129.762 26.2901 130.042 26.34C130.108 26.3519 130.203 26.1848 130.337 25.8184C130.446 25.5219 130.989 24.0659 131.543 22.5829C132.098 21.0998 132.551 19.8082 132.551 19.7126C132.551 19.617 132.496 19.4885 132.428 19.4272C132.318 19.3272 132.015 19.3157 129.498 19.3157H126.692L126.593 19.4673ZM18.1609 23.2612C17.7217 23.478 17.5899 24.0623 17.8976 24.428C18.0743 24.6381 18.2709 24.7259 19.601 25.1893C20.2762 25.4246 20.3902 25.4464 20.5928 25.3796C21.2774 25.1536 21.3576 24.2363 20.7191 23.9333C20.3764 23.7707 18.6008 23.1565 18.4782 23.1582C18.4168 23.159 18.274 23.2054 18.1609 23.2612ZM84.7976 23.8631C85.7891 24.0732 86.4441 24.5407 86.8044 25.2956C87.0583 25.8277 87.2662 26.7962 87.2674 27.4525L87.2683 27.941H83.4913H79.7144L79.7601 27.5199C79.826 26.9117 80.0853 25.9265 80.2805 25.5429C80.7702 24.5805 81.5595 24.0311 82.7371 23.8328C83.2654 23.7439 84.3072 23.7592 84.7976 23.8631ZM120.724 24.4586C120.596 24.5869 120.481 24.7835 120.456 24.9194C120.401 25.2106 120.549 25.5976 120.77 25.7422C121.038 25.9173 131.688 29.6931 131.914 29.6931C132.648 29.6931 133.005 28.6333 132.417 28.2008C132.131 27.9912 121.524 24.2348 121.218 24.2348C121.002 24.2348 120.903 24.2796 120.724 24.4586ZM44.3418 25.8995C44.0733 26.0846 44.0112 26.2038 44.0089 26.5376C44.0054 27.0529 44.1712 27.1873 45.3118 27.5941C46.4875 28.0133 46.6963 28.0278 47.0121 27.7119C47.2051 27.5189 47.2412 27.4348 47.2412 27.178C47.2412 26.6736 47.0693 26.5357 45.9362 26.1317C44.8951 25.7604 44.6049 25.7182 44.3418 25.8995ZM37.3617 27.852C37.2834 27.8677 37.1357 27.9679 37.0334 28.0747C36.8154 28.3022 36.812 28.3527 36.9088 29.9289C36.9452 30.5219 37.0115 31.075 37.0562 31.158C37.2688 31.5531 37.9974 31.6234 38.3374 31.2816C38.512 31.1062 38.5146 31.0897 38.5004 30.2574C38.4752 28.783 38.3378 28.1146 38.0263 27.9513C37.865 27.8669 37.534 27.8174 37.3617 27.852ZM14.0892 31.0115C14.2575 31.4543 14.1154 31.9623 13.7278 32.3025C13.2596 32.7136 12.6594 32.7303 12.2014 32.345C11.9882 32.1656 11.7964 31.8591 11.7964 31.6977C11.7964 31.576 12.2902 31.3388 13.1104 31.0667C13.9289 30.7952 14.0053 30.7908 14.0892 31.0115ZM17.6893 33.8952C17.5763 33.9462 17.3987 34.089 17.2947 34.2126C17.1248 34.4146 17.1085 34.4769 17.1339 34.8281C17.1569 35.1452 17.1989 35.2571 17.3568 35.422C17.8319 35.9178 18.6548 35.7849 18.9149 35.1703C19.1007 34.7314 18.9615 34.2231 18.5888 33.9791C18.3576 33.8278 17.9278 33.7878 17.6893 33.8952ZM63.1374 35.5747C62.8148 35.7913 62.6803 36.1882 62.8121 36.5345C62.8651 36.6738 62.9876 36.8469 63.0843 36.9191C63.372 37.1339 73.9142 40.8755 74.2369 40.8775C74.9485 40.8816 75.3128 39.9824 74.8041 39.478C74.6592 39.3344 73.4582 38.8821 69.1685 37.3558C66.1702 36.2889 63.6381 35.4171 63.5417 35.4184C63.4453 35.4198 63.2633 35.49 63.1374 35.5747ZM131.81 35.5389C131.504 35.6917 131.308 36.0772 131.369 36.4039C131.47 36.9427 131.314 36.8739 137.268 38.9985C142.487 40.8606 142.772 40.9542 143.008 40.8836C143.295 40.7975 143.572 40.4995 143.636 40.2066C143.691 39.9583 143.511 39.5616 143.266 39.3861C143.064 39.2422 132.385 35.4208 132.185 35.421C132.109 35.421 131.94 35.4741 131.81 35.5389ZM12.7735 36.8129C12.6994 36.8285 12.5711 36.8556 12.4883 36.8732C12.2928 36.9149 11.8837 37.2758 11.7593 37.5165C11.7053 37.6208 11.6616 37.8892 11.6616 38.1163C11.6616 38.5912 11.7616 38.8212 12.0953 39.1142C12.9429 39.8584 14.2503 39.2531 14.2529 38.1153C14.2544 37.4505 13.7939 36.912 13.1441 36.8185C13.0144 36.7998 12.8476 36.7973 12.7735 36.8129ZM26.4396 37.3047C25.6493 37.7865 25.8978 38.9555 26.8091 39.0431C27.4124 39.101 27.8337 38.72 27.8337 38.1163C27.8337 37.377 27.0599 36.9264 26.4396 37.3047ZM19.4784 38.0489C19.3154 38.2119 19.2977 38.6272 19.4448 38.8372C19.667 39.1545 20.2301 39.0763 20.4089 38.7033C20.5177 38.4764 20.4149 38.086 20.2187 37.981C20.0062 37.8673 19.625 37.9023 19.4784 38.0489ZM63.4812 39.3153C63.4812 40.3505 63.5002 40.6067 63.5861 40.7293L63.6909 40.8791H66.4395C69.0167 40.8791 69.195 40.8714 69.2996 40.7558C69.3609 40.688 69.4111 40.5277 69.4111 40.3994V40.1661L67.2042 39.3785C65.9904 38.9454 64.6562 38.4695 64.2393 38.3211L63.4812 38.051V39.3153ZM133.876 39.6656C133.629 40.0359 133.427 40.3964 133.427 40.4667C133.427 40.5371 133.48 40.6574 133.545 40.7342C133.661 40.8709 133.723 40.8741 136.509 40.8888C139.036 40.9021 139.525 40.8847 139.419 40.7853C139.379 40.7472 134.446 38.9923 134.38 38.9923C134.349 38.9923 134.122 39.2952 133.876 39.6656ZM33.1846 39.6931C32.9907 39.887 32.9555 39.9696 32.9555 40.2311C32.9555 40.8337 32.7555 40.7407 38.3359 42.7311C41.0913 43.7139 43.4367 44.5179 43.5479 44.5179C43.9927 44.5179 44.3127 44.1677 44.3002 43.6945C44.2862 43.1577 44.3911 43.2052 38.8955 41.2465C35.9116 40.183 33.7974 39.464 33.654 39.464C33.4706 39.464 33.3595 39.5182 33.1846 39.6931ZM30.3279 41.2523C29.7996 41.4896 29.5188 41.9401 29.5188 42.5504C29.5188 43.3748 30.0752 43.9376 30.8881 43.9358C31.3593 43.9346 31.6035 43.8309 31.9238 43.496C32.1959 43.2114 32.2816 42.9823 32.2816 42.5399C32.2816 42.0729 32.0632 41.6473 31.6906 41.3884C31.3377 41.1433 30.7103 41.0806 30.3279 41.2523ZM24.7252 41.3408C24.0022 41.5796 23.4135 42.1611 23.146 42.9006C22.9791 43.3622 22.9983 44.1881 23.1876 44.6864C23.3994 45.2438 24.0066 45.8515 24.566 46.0663C25.0813 46.264 25.8925 46.2854 26.3854 46.1141C27.7762 45.6309 28.4419 43.9585 27.7792 42.6124C27.5229 42.0919 27.0942 41.6752 26.5657 41.433C26.0555 41.1992 25.2727 41.16 24.7252 41.3408ZM18.6098 42.4556C18.3994 42.5722 18.2708 42.8118 18.2678 43.0927C18.2644 43.4206 18.6315 43.7767 18.973 43.7767C19.3012 43.7767 19.6805 43.4207 19.6805 43.1127C19.6805 42.5273 19.1111 42.1778 18.6098 42.4556ZM26.0707 42.9599C26.3425 43.1534 26.5112 43.5306 26.462 43.8345C26.319 44.7151 25.2006 44.969 24.741 44.2252C24.2142 43.3729 25.2571 42.3806 26.0707 42.9599ZM105.828 44.718C105.551 44.83 105.328 45.1794 105.328 45.5011C105.328 45.7457 105.368 45.8427 105.547 46.0335C105.728 46.2263 105.964 46.3375 106.904 46.6727C107.531 46.8959 108.122 47.0784 108.218 47.0783C108.674 47.0777 109.076 46.5889 109.013 46.1137C108.952 45.6643 108.732 45.5141 107.463 45.059C106.343 44.6575 106.102 44.6071 105.828 44.718Z" fill="#FDD500"/>
</svg>
